<svg xmlns="http://www.w3.org/2000/svg" xmlns:xlink="http://www.w3.org/1999/xlink" contentStyleType="text/css" height="1618px" preserveAspectRatio="none" style="width:872px;height:1618px;" version="1.1" viewBox="0 0 872 1618" width="872px" zoomAndPan="magnify"><defs/><g><rect fill="#F3F4F8" height="425.9297" style="stroke:#64748B;stroke-width:1.5;" width="684.9102" x="93.5762" y="11"/><path d="M203.5967,11 L203.5967,22.4883 L193.5967,32.4883 L93.5762,32.4883 " fill="none" style="stroke:#64748B;stroke-width:1.5;"/><text fill="#000000" font-family="Latin Modern" font-size="14" lengthAdjust="spacing" textLength="98.0205" x="97.5762" y="26.5352">Initial Analysis</text><ellipse cx="436.0313" cy="52.4883" fill="#222222" rx="10" ry="10" style="stroke:#222222;stroke-width:1;"/><path d="M553.7793,87.4883 L553.7793,97.7324 L533.7793,101.7324 L553.7793,105.7324 L553.7793,115.9766 A0,0 0 0 0 553.7793,115.9766 L699.9082,115.9766 A0,0 0 0 0 699.9082,115.9766 L699.9082,97.4883 L689.9082,87.4883 L553.7793,87.4883 A0,0 0 0 0 553.7793,87.4883 " fill="#FFFFFF" style="stroke:#999999;stroke-width:0.5;"/><path d="M689.9082,87.4883 L689.9082,97.4883 L699.9082,97.4883 L689.9082,87.4883 " fill="#FFFFFF" style="stroke:#999999;stroke-width:0.5;"/><text fill="#000000" font-family="Latin Modern" font-size="14" lengthAdjust="spacing" textLength="123.1289" x="560.7793" y="107.0234">21 tables selected</text><rect fill="#F9F9F9" height="38.4883" rx="12.5" ry="12.5" style="stroke:#333333;stroke-width:0.5;" width="195.4961" x="338.2832" y="82.4883"/><text fill="#000000" font-family="Latin Modern" font-size="14" lengthAdjust="spacing" textLength="173.4961" x="349.2832" y="107.0234">Analyze DB, Select Tables</text><rect fill="#F9F9F9" height="38.4883" rx="12.5" ry="12.5" style="stroke:#333333;stroke-width:0.5;" width="158.9307" x="356.5659" y="140.9766"/><text fill="#000000" font-family="Latin Modern" font-size="14" lengthAdjust="spacing" textLength="136.9307" x="367.5659" y="165.5117">Plan Export Strategy</text><line style="stroke:#666666;stroke-width:1.5;" x1="199.0684" x2="672.4849" y1="199.4648" y2="199.4648"/><rect fill="#F9F9F9" height="38.4883" rx="12.5" ry="12.5" style="stroke:#333333;stroke-width:0.5;" width="162.9844" x="117.5762" y="256.209"/><text fill="#000000" font-family="Latin Modern" font-size="14" lengthAdjust="spacing" textLength="140.9844" x="128.5762" y="280.7441">Process Small Tables</text><rect fill="#F9F9F9" height="38.4883" rx="12.5" ry="12.5" style="stroke:#333333;stroke-width:0.5;" width="142.2578" x="127.9395" y="329.6973"/><text fill="#000000" font-family="Latin Modern" font-size="14" lengthAdjust="spacing" textLength="120.2578" x="138.9395" y="354.2324">Direct CSV Export</text><rect fill="#F9F9F9" height="38.4883" rx="12.5" ry="12.5" style="stroke:#333333;stroke-width:0.5;" width="164.0029" x="590.4834" y="219.4648"/><text fill="#000000" font-family="Latin Modern" font-size="14" lengthAdjust="spacing" textLength="142.0029" x="601.4834" y="244">Process Large Tables</text><rect fill="#F9F9F9" height="38.4883" rx="12.5" ry="12.5" style="stroke:#333333;stroke-width:0.5;" width="124.3477" x="610.311" y="292.9531"/><text fill="#000000" font-family="Latin Modern" font-size="14" lengthAdjust="spacing" textLength="102.3477" x="621.311" y="317.4883">Split in Chunks</text><path d="M308.5605,371.4414 L308.5605,399.9297 A0,0 0 0 0 308.5605,399.9297 L586.6982,399.9297 A0,0 0 0 0 586.6982,399.9297 L586.6982,389.6855 L606.6982,385.6855 L586.6982,381.6855 L586.6982,381.4414 L576.6982,371.4414 L308.5605,371.4414 A0,0 0 0 0 308.5605,371.4414 " fill="#FFFFFF" style="stroke:#999999;stroke-width:0.5;"/><path d="M576.6982,371.4414 L576.6982,381.4414 L586.6982,381.4414 L576.6982,371.4414 " fill="#FFFFFF" style="stroke:#999999;stroke-width:0.5;"/><text fill="#000000" font-family="Latin Modern" font-size="14" lengthAdjust="spacing" textLength="255.1377" x="315.5605" y="390.9766">e.g., Transactions table (140k+ rows)</text><rect fill="#F9F9F9" height="38.4883" rx="12.5" ry="12.5" style="stroke:#333333;stroke-width:0.5;" width="131.5732" x="606.6982" y="366.4414"/><text fill="#000000" font-family="Latin Modern" font-size="14" lengthAdjust="spacing" textLength="109.5732" x="617.6982" y="390.9766">Join with Python</text><line style="stroke:#666666;stroke-width:1.5;" x1="199.0684" x2="672.4849" y1="424.9297" y2="424.9297"/><rect fill="#F3F4F8" height="88.9766" style="stroke:#64748B;stroke-width:1.5;" width="270.7441" x="300.6592" y="446.9297"/><path d="M407.7744,446.9297 L407.7744,458.418 L397.7744,468.418 L300.6592,468.418 " fill="none" style="stroke:#64748B;stroke-width:1.5;"/><text fill="#000000" font-family="Latin Modern" font-size="14" lengthAdjust="spacing" textLength="95.1152" x="304.6592" y="462.4648">Preprocessing</text><rect fill="#F9F9F9" height="38.4883" rx="12.5" ry="12.5" style="stroke:#333333;stroke-width:0.5;" width="250.7441" x="310.6592" y="485.418"/><text fill="#000000" font-family="Latin Modern" font-size="14" lengthAdjust="spacing" textLength="228.7441" x="321.6592" y="509.9531">Fix Formats, Convert Timestamps</text><rect fill="#F3F4F8" height="205.9531" style="stroke:#64748B;stroke-width:1.5;" width="249.375" x="311.3438" y="545.9063"/><path d="M451.2305,545.9063 L451.2305,557.3945 L441.2305,567.3945 L311.3438,567.3945 " fill="none" style="stroke:#64748B;stroke-width:1.5;"/><text fill="#000000" font-family="Latin Modern" font-size="14" lengthAdjust="spacing" textLength="127.8867" x="315.3438" y="561.4414">Environment Setup</text><rect fill="#F9F9F9" height="38.4883" rx="12.5" ry="12.5" style="stroke:#333333;stroke-width:0.5;" width="229.375" x="321.3438" y="584.3945"/><text fill="#000000" font-family="Latin Modern" font-size="14" lengthAdjust="spacing" textLength="207.375" x="332.3438" y="608.9297">Setup PostgreSQL with PostGIS</text><rect fill="#F9F9F9" height="38.4883" rx="12.5" ry="12.5" style="stroke:#333333;stroke-width:0.5;" width="197.1367" x="337.4629" y="642.8828"/><text fill="#000000" font-family="Latin Modern" font-size="14" lengthAdjust="spacing" textLength="175.1367" x="348.4629" y="667.418">Import Preprocessed Files</text><rect fill="#0B2A70" height="38.4883" rx="12.5" ry="12.5" style="stroke:#40C8D3;stroke-width:0.5;" width="153.4482" x="359.3071" y="701.3711"/><text fill="#FFFFFF" font-family="Latin Modern" font-size="14" lengthAdjust="spacing" textLength="131.4482" x="370.3071" y="725.9063">Base Dataset Ready</text><rect fill="#F3F4F8" height="282.4414" style="stroke:#64748B;stroke-width:1.5;" width="826.0625" x="23" y="761.8594"/><path d="M161.7656,761.8594 L161.7656,773.3477 L151.7656,783.3477 L23,783.3477 " fill="none" style="stroke:#64748B;stroke-width:1.5;"/><text fill="#000000" font-family="Latin Modern" font-size="14" lengthAdjust="spacing" textLength="126.7656" x="27" y="777.3945">Data Enhancement</text><line style="stroke:#666666;stroke-width:1.5;" x1="274.9199" x2="622.4766" y1="800.3477" y2="800.3477"/><rect fill="#F9F9F9" height="38.4883" rx="12.5" ry="12.5" style="stroke:#333333;stroke-width:0.5;" width="179.2881" x="185.2759" y="857.0918"/><text fill="#000000" font-family="Latin Modern" font-size="14" lengthAdjust="spacing" textLength="157.2881" x="196.2759" y="881.627">Enhance Beverage Data</text><path d="M47,930.5801 L47,975.5566 A0,0 0 0 0 47,975.5566 L186.9355,975.5566 A0,0 0 0 0 186.9355,975.5566 L186.9355,957.0684 L206.9355,953.0684 L186.9355,949.0684 L186.9355,940.5801 L176.9355,930.5801 L47,930.5801 A0,0 0 0 0 47,930.5801 " fill="#FFFFFF" style="stroke:#999999;stroke-width:0.5;"/><path d="M176.9355,930.5801 L176.9355,940.5801 L186.9355,940.5801 L176.9355,930.5801 " fill="#FFFFFF" style="stroke:#999999;stroke-width:0.5;"/><text fill="#000000" font-family="Latin Modern" font-size="14" lengthAdjust="spacing" textLength="88.1426" x="54" y="950.1152">Manual entry</text><text fill="#000000" font-family="Latin Modern" font-size="14" lengthAdjust="spacing" textLength="116.9355" x="54" y="966.6035">in 159 beverages</text><rect fill="#F9F9F9" height="38.4883" rx="12.5" ry="12.5" style="stroke:#333333;stroke-width:0.5;" width="135.9688" x="206.9355" y="933.8242"/><text fill="#000000" font-family="Latin Modern" font-size="14" lengthAdjust="spacing" textLength="113.9688" x="217.9355" y="958.3594">Add Volume Info</text><rect fill="#F9F9F9" height="38.4883" rx="12.5" ry="12.5" style="stroke:#333333;stroke-width:0.5;" width="129.8711" x="392.564" y="860.3359"/><text fill="#000000" font-family="Latin Modern" font-size="14" lengthAdjust="spacing" textLength="107.8711" x="403.564" y="884.8711">Process Returns</text><rect fill="#F9F9F9" height="38.4883" rx="12.5" ry="12.5" style="stroke:#333333;stroke-width:0.5;" width="127.7178" x="393.6406" y="933.8242"/><text fill="#000000" font-family="Latin Modern" font-size="14" lengthAdjust="spacing" textLength="105.7178" x="404.6406" y="958.3594">Add Binary Flag</text><rect fill="#F9F9F9" height="38.4883" rx="12.5" ry="12.5" style="stroke:#333333;stroke-width:0.5;" width="144.083" x="550.4351" y="820.3477"/><text fill="#000000" font-family="Latin Modern" font-size="14" lengthAdjust="spacing" textLength="122.083" x="561.4351" y="844.8828">Import Event Data</text><rect fill="#F9F9F9" height="38.4883" rx="12.5" ry="12.5" style="stroke:#333333;stroke-width:0.5;" width="139.2705" x="552.8413" y="893.8359"/><text fill="#000000" font-family="Latin Modern" font-size="14" lengthAdjust="spacing" textLength="117.2705" x="563.8413" y="918.3711">Extract from Web</text><path d="M712.3477,967.3242 L712.3477,985.8125 L692.3477,989.8125 L712.3477,993.8125 L712.3477,1012.3008 A0,0 0 0 0 712.3477,1012.3008 L825.0625,1012.3008 A0,0 0 0 0 825.0625,1012.3008 L825.0625,977.3242 L815.0625,967.3242 L712.3477,967.3242 A0,0 0 0 0 712.3477,967.3242 " fill="#FFFFFF" style="stroke:#999999;stroke-width:0.5;"/><path d="M815.0625,967.3242 L815.0625,977.3242 L825.0625,977.3242 L815.0625,967.3242 " fill="#FFFFFF" style="stroke:#999999;stroke-width:0.5;"/><text fill="#000000" font-family="Latin Modern" font-size="14" lengthAdjust="spacing" textLength="89.7148" x="719.3477" y="986.8594">AI-Processed</text><text fill="#000000" font-family="Latin Modern" font-size="14" lengthAdjust="spacing" textLength="75.5781" x="719.3477" y="1003.3477">SQL scripts</text><rect fill="#F9F9F9" height="38.4883" rx="12.5" ry="12.5" style="stroke:#333333;stroke-width:0.5;" width="139.7422" x="552.6055" y="970.5684"/><text fill="#000000" font-family="Latin Modern" font-size="14" lengthAdjust="spacing" textLength="117.7422" x="563.6055" y="995.1035">AI-Assisted Entry</text><line style="stroke:#666666;stroke-width:1.5;" x1="274.9199" x2="622.4766" y1="1032.3008" y2="1032.3008"/><rect fill="#F3F4F8" height="313.9297" style="stroke:#64748B;stroke-width:1.5;" width="850.0625" x="11" y="1054.3008"/><path d="M125.3955,1054.3008 L125.3955,1065.7891 L115.3955,1075.7891 L11,1075.7891 " fill="none" style="stroke:#64748B;stroke-width:1.5;"/><text fill="#000000" font-family="Latin Modern" font-size="14" lengthAdjust="spacing" textLength="102.3955" x="15" y="1069.8359">Anonymization</text><path d="M69.5708,1092.5449 L69.5708,1137.5215 A0,0 0 0 0 69.5708,1137.5215 L275.7808,1137.5215 A0,0 0 0 0 275.7808,1137.5215 L275.7808,1119.0332 L295.7808,1115.0332 L275.7808,1111.0332 L275.7808,1102.5449 L265.7808,1092.5449 L69.5708,1092.5449 A0,0 0 0 0 69.5708,1092.5449 " fill="#FFFFFF" style="stroke:#999999;stroke-width:0.5;"/><path d="M265.7808,1092.5449 L265.7808,1102.5449 L275.7808,1102.5449 L265.7808,1092.5449 " fill="#FFFFFF" style="stroke:#999999;stroke-width:0.5;"/><text fill="#000000" font-family="Latin Modern" font-size="14" lengthAdjust="spacing" textLength="183.21" x="76.5708" y="1112.0801">New anonymization_config</text><text fill="#000000" font-family="Latin Modern" font-size="14" lengthAdjust="spacing" textLength="176.1211" x="76.5708" y="1128.5684">and original_values tables</text><rect fill="#F9F9F9" height="38.4883" rx="12.5" ry="12.5" style="stroke:#333333;stroke-width:0.5;" width="280.501" x="295.7808" y="1095.7891"/><text fill="#000000" font-family="Latin Modern" font-size="14" lengthAdjust="spacing" textLength="258.501" x="306.7808" y="1120.3242">Extend DB with Anonymization Tables</text><path d="M554.0015,1162.5215 L554.0015,1172.7656 L534.0015,1176.7656 L554.0015,1180.7656 L554.0015,1191.0098 A0,0 0 0 0 554.0015,1191.0098 L702.6392,1191.0098 A0,0 0 0 0 702.6392,1191.0098 L702.6392,1172.5215 L692.6392,1162.5215 L554.0015,1162.5215 A0,0 0 0 0 554.0015,1162.5215 " fill="#FFFFFF" style="stroke:#999999;stroke-width:0.5;"/><path d="M692.6392,1162.5215 L692.6392,1172.5215 L702.6392,1172.5215 L692.6392,1162.5215 " fill="#FFFFFF" style="stroke:#999999;stroke-width:0.5;"/><text fill="#000000" font-family="Latin Modern" font-size="14" lengthAdjust="spacing" textLength="125.6377" x="561.0015" y="1182.0566">JSON-driven setup</text><rect fill="#F9F9F9" height="38.4883" rx="12.5" ry="12.5" style="stroke:#333333;stroke-width:0.5;" width="195.9404" x="338.061" y="1157.5215"/><text fill="#000000" font-family="Latin Modern" font-size="14" lengthAdjust="spacing" textLength="173.9404" x="349.061" y="1182.0566">Configure Anonymization</text><line style="stroke:#666666;stroke-width:1.5;" x1="246.0586" x2="590.9185" y1="1216.0098" y2="1216.0098"/><path d="M27.415,1241.0098 L27.415,1269.498 A0,0 0 0 0 27.415,1269.498 L159.2295,1269.498 A0,0 0 0 0 159.2295,1269.498 L159.2295,1259.2539 L179.2295,1255.2539 L159.2295,1251.2539 L159.2295,1251.0098 L149.2295,1241.0098 L27.415,1241.0098 A0,0 0 0 0 27.415,1241.0098 " fill="#FFFFFF" style="stroke:#999999;stroke-width:0.5;"/><path d="M149.2295,1241.0098 L149.2295,1251.0098 L159.2295,1251.0098 L149.2295,1241.0098 " fill="#FFFFFF" style="stroke:#999999;stroke-width:0.5;"/><text fill="#000000" font-family="Latin Modern" font-size="14" lengthAdjust="spacing" textLength="108.8145" x="34.415" y="1260.5449">Specific formats</text><rect fill="#F9F9F9" height="38.4883" rx="12.5" ry="12.5" style="stroke:#333333;stroke-width:0.5;" width="133.6582" x="179.2295" y="1236.0098"/><text fill="#000000" font-family="Latin Modern" font-size="14" lengthAdjust="spacing" textLength="111.6582" x="190.2295" y="1260.5449">Process Vendors</text><rect fill="#F9F9F9" height="38.4883" rx="12.5" ry="12.5" style="stroke:#333333;stroke-width:0.5;" width="150.8232" x="340.8877" y="1236.0098"/><text fill="#000000" font-family="Latin Modern" font-size="14" lengthAdjust="spacing" textLength="128.8232" x="351.8877" y="1260.5449">Process Customers</text><path d="M682.126,1232.7656 L682.126,1251.2539 L662.126,1255.2539 L682.126,1259.2539 L682.126,1277.7422 A0,0 0 0 0 682.126,1277.7422 L844.6475,1277.7422 A0,0 0 0 0 844.6475,1277.7422 L844.6475,1242.7656 L834.6475,1232.7656 L682.126,1232.7656 A0,0 0 0 0 682.126,1232.7656 " fill="#FFFFFF" style="stroke:#999999;stroke-width:0.5;"/><path d="M834.6475,1232.7656 L834.6475,1242.7656 L844.6475,1242.7656 L834.6475,1232.7656 " fill="#FFFFFF" style="stroke:#999999;stroke-width:0.5;"/><text fill="#000000" font-family="Latin Modern" font-size="14" lengthAdjust="spacing" textLength="131.1953" x="689.126" y="1252.3008">Keep non-sensitive</text><text fill="#000000" font-family="Latin Modern" font-size="14" lengthAdjust="spacing" textLength="139.5215" x="689.126" y="1268.7891">names (e.g., BAR L2)</text><rect fill="#F9F9F9" height="38.4883" rx="12.5" ry="12.5" style="stroke:#333333;stroke-width:0.5;" width="142.415" x="519.7109" y="1236.0098"/><text fill="#000000" font-family="Latin Modern" font-size="14" lengthAdjust="spacing" textLength="120.415" x="530.7109" y="1260.5449">Process Locations</text><line style="stroke:#666666;stroke-width:1.5;" x1="246.0586" x2="590.9185" y1="1297.7422" y2="1297.7422"/><rect fill="#0B2A70" height="38.4883" rx="12.5" ry="12.5" style="stroke:#40C8D3;stroke-width:0.5;" width="162.4922" x="354.7852" y="1317.7422"/><text fill="#FFFFFF" font-family="Latin Modern" font-size="14" lengthAdjust="spacing" textLength="140.4922" x="365.7852" y="1342.2773">Dataset Anonymized</text><rect fill="#F3F4F8" height="128.9766" style="stroke:#64748B;stroke-width:1.5;" width="723.6016" x="74.2305" y="1378.2305"/><path d="M176.499,1378.2305 L176.499,1389.7188 L166.499,1399.7188 L74.2305,1399.7188 " fill="none" style="stroke:#64748B;stroke-width:1.5;"/><text fill="#000000" font-family="Latin Modern" font-size="14" lengthAdjust="spacing" textLength="90.2686" x="78.2305" y="1393.7656">Analysis Prep</text><line style="stroke:#666666;stroke-width:1.5;" x1="206.8579" x2="682.1406" y1="1416.7188" y2="1416.7188"/><rect fill="#F9F9F9" height="38.4883" rx="12.5" ry="12.5" style="stroke:#333333;stroke-width:0.5;" width="217.2549" x="98.2305" y="1436.7188"/><text fill="#000000" font-family="Latin Modern" font-size="14" lengthAdjust="spacing" textLength="195.2549" x="109.2305" y="1461.2539">Build Commission Calculator</text><rect fill="#F9F9F9" height="38.4883" rx="12.5" ry="12.5" style="stroke:#333333;stroke-width:0.5;" width="218.9639" x="343.4854" y="1436.7188"/><text fill="#000000" font-family="Latin Modern" font-size="14" lengthAdjust="spacing" textLength="196.9639" x="354.4854" y="1461.2539">Transaction Enrichment View</text><rect fill="#F9F9F9" height="38.4883" rx="12.5" ry="12.5" style="stroke:#333333;stroke-width:0.5;" width="183.3828" x="590.4492" y="1436.7188"/><text fill="#000000" font-family="Latin Modern" font-size="14" lengthAdjust="spacing" textLength="161.3828" x="601.4492" y="1461.2539">Develop Customer View</text><line style="stroke:#666666;stroke-width:1.5;" x1="206.8579" x2="682.1406" y1="1495.207" y2="1495.207"/><rect fill="#0B2A70" height="38.4883" rx="12.5" ry="12.5" style="stroke:#40C8D3;stroke-width:0.5;" width="164.3584" x="353.8521" y="1527.207"/><text fill="#FFFFFF" font-family="Latin Modern" font-size="14" font-weight="bold" lengthAdjust="spacing" textLength="142.3584" x="364.8521" y="1551.7422">Final Dataset Ready</text><ellipse cx="436.0313" cy="1596.6953" fill="none" rx="11" ry="11" style="stroke:#222222;stroke-width:1;"/><ellipse cx="436.0313" cy="1596.6953" fill="#222222" rx="6" ry="6" style="stroke:#222222;stroke-width:1;"/><line style="stroke:#666666;stroke-width:0.7;" x1="436.0313" x2="436.0313" y1="62.4883" y2="82.4883"/><polygon fill="#666666" points="432.0313,72.4883,436.0313,82.4883,440.0313,72.4883,436.0313,76.4883" style="stroke:#666666;stroke-width:1;"/><line style="stroke:#666666;stroke-width:0.7;" x1="436.0313" x2="436.0313" y1="120.9766" y2="140.9766"/><polygon fill="#666666" points="432.0313,130.9766,436.0313,140.9766,440.0313,130.9766,436.0313,134.9766" style="stroke:#666666;stroke-width:1;"/><line style="stroke:#666666;stroke-width:0.7;" x1="199.0684" x2="199.0684" y1="294.6973" y2="329.6973"/><polygon fill="#666666" points="195.0684,319.6973,199.0684,329.6973,203.0684,319.6973,199.0684,323.6973" style="stroke:#666666;stroke-width:1;"/><line style="stroke:#666666;stroke-width:0.7;" x1="672.4849" x2="672.4849" y1="257.9531" y2="292.9531"/><polygon fill="#666666" points="668.4849,282.9531,672.4849,292.9531,676.4849,282.9531,672.4849,286.9531" style="stroke:#666666;stroke-width:1;"/><line style="stroke:#666666;stroke-width:0.7;" x1="672.4849" x2="672.4849" y1="331.4414" y2="366.4414"/><polygon fill="#666666" points="668.4849,356.4414,672.4849,366.4414,676.4849,356.4414,672.4849,360.4414" style="stroke:#666666;stroke-width:1;"/><line style="stroke:#666666;stroke-width:0.7;" x1="199.0684" x2="199.0684" y1="200.9648" y2="256.209"/><polygon fill="#666666" points="195.0684,246.209,199.0684,256.209,203.0684,246.209,199.0684,250.209" style="stroke:#666666;stroke-width:1;"/><line style="stroke:#666666;stroke-width:0.7;" x1="672.4849" x2="672.4849" y1="200.9648" y2="219.4648"/><polygon fill="#666666" points="668.4849,209.4648,672.4849,219.4648,676.4849,209.4648,672.4849,213.4648" style="stroke:#666666;stroke-width:1;"/><line style="stroke:#666666;stroke-width:0.7;" x1="199.0684" x2="199.0684" y1="368.1855" y2="424.9297"/><polygon fill="#666666" points="195.0684,414.9297,199.0684,424.9297,203.0684,414.9297,199.0684,418.9297" style="stroke:#666666;stroke-width:1;"/><line style="stroke:#666666;stroke-width:0.7;" x1="672.4849" x2="672.4849" y1="404.9297" y2="424.9297"/><polygon fill="#666666" points="668.4849,414.9297,672.4849,424.9297,676.4849,414.9297,672.4849,418.9297" style="stroke:#666666;stroke-width:1;"/><line style="stroke:#666666;stroke-width:0.7;" x1="436.0313" x2="436.0313" y1="179.4648" y2="199.4648"/><polygon fill="#666666" points="432.0313,189.4648,436.0313,199.4648,440.0313,189.4648,436.0313,193.4648" style="stroke:#666666;stroke-width:1;"/><line style="stroke:#666666;stroke-width:0.7;" x1="436.0313" x2="436.0313" y1="426.4297" y2="485.418"/><polygon fill="#666666" points="432.0313,475.418,436.0313,485.418,440.0313,475.418,436.0313,479.418" style="stroke:#666666;stroke-width:1;"/><line style="stroke:#666666;stroke-width:0.7;" x1="436.0313" x2="436.0313" y1="622.8828" y2="642.8828"/><polygon fill="#666666" points="432.0313,632.8828,436.0313,642.8828,440.0313,632.8828,436.0313,636.8828" style="stroke:#666666;stroke-width:1;"/><line style="stroke:#666666;stroke-width:0.7;" x1="436.0313" x2="436.0313" y1="681.3711" y2="701.3711"/><polygon fill="#666666" points="432.0313,691.3711,436.0313,701.3711,440.0313,691.3711,436.0313,695.3711" style="stroke:#666666;stroke-width:1;"/><line style="stroke:#666666;stroke-width:0.7;" x1="436.0313" x2="436.0313" y1="523.9063" y2="584.3945"/><polygon fill="#666666" points="432.0313,574.3945,436.0313,584.3945,440.0313,574.3945,436.0313,578.3945" style="stroke:#666666;stroke-width:1;"/><line style="stroke:#666666;stroke-width:0.7;" x1="274.9199" x2="274.9199" y1="895.5801" y2="933.8242"/><polygon fill="#666666" points="270.9199,923.8242,274.9199,933.8242,278.9199,923.8242,274.9199,927.8242" style="stroke:#666666;stroke-width:1;"/><line style="stroke:#666666;stroke-width:0.7;" x1="457.4995" x2="457.4995" y1="898.8242" y2="933.8242"/><polygon fill="#666666" points="453.4995,923.8242,457.4995,933.8242,461.4995,923.8242,457.4995,927.8242" style="stroke:#666666;stroke-width:1;"/><line style="stroke:#666666;stroke-width:0.7;" x1="622.4766" x2="622.4766" y1="858.8359" y2="893.8359"/><polygon fill="#666666" points="618.4766,883.8359,622.4766,893.8359,626.4766,883.8359,622.4766,887.8359" style="stroke:#666666;stroke-width:1;"/><line style="stroke:#666666;stroke-width:0.7;" x1="622.4766" x2="622.4766" y1="932.3242" y2="970.5684"/><polygon fill="#666666" points="618.4766,960.5684,622.4766,970.5684,626.4766,960.5684,622.4766,964.5684" style="stroke:#666666;stroke-width:1;"/><line style="stroke:#666666;stroke-width:0.7;" x1="274.9199" x2="274.9199" y1="801.8477" y2="857.0918"/><polygon fill="#666666" points="270.9199,847.0918,274.9199,857.0918,278.9199,847.0918,274.9199,851.0918" style="stroke:#666666;stroke-width:1;"/><line style="stroke:#666666;stroke-width:0.7;" x1="457.4995" x2="457.4995" y1="801.8477" y2="860.3359"/><polygon fill="#666666" points="453.4995,850.3359,457.4995,860.3359,461.4995,850.3359,457.4995,854.3359" style="stroke:#666666;stroke-width:1;"/><line style="stroke:#666666;stroke-width:0.7;" x1="622.4766" x2="622.4766" y1="801.8477" y2="820.3477"/><polygon fill="#666666" points="618.4766,810.3477,622.4766,820.3477,626.4766,810.3477,622.4766,814.3477" style="stroke:#666666;stroke-width:1;"/><line style="stroke:#666666;stroke-width:0.7;" x1="274.9199" x2="274.9199" y1="972.3125" y2="1032.3008"/><polygon fill="#666666" points="270.9199,1022.3008,274.9199,1032.3008,278.9199,1022.3008,274.9199,1026.3008" style="stroke:#666666;stroke-width:1;"/><line style="stroke:#666666;stroke-width:0.7;" x1="457.4995" x2="457.4995" y1="972.3125" y2="1032.3008"/><polygon fill="#666666" points="453.4995,1022.3008,457.4995,1032.3008,461.4995,1022.3008,457.4995,1026.3008" style="stroke:#666666;stroke-width:1;"/><line style="stroke:#666666;stroke-width:0.7;" x1="622.4766" x2="622.4766" y1="1009.0566" y2="1032.3008"/><polygon fill="#666666" points="618.4766,1022.3008,622.4766,1032.3008,626.4766,1022.3008,622.4766,1026.3008" style="stroke:#666666;stroke-width:1;"/><line style="stroke:#666666;stroke-width:0.7;" x1="436.0313" x2="436.0313" y1="739.8594" y2="800.3477"/><polygon fill="#666666" points="432.0313,790.3477,436.0313,800.3477,440.0313,790.3477,436.0313,794.3477" style="stroke:#666666;stroke-width:1;"/><line style="stroke:#666666;stroke-width:0.7;" x1="436.0313" x2="436.0313" y1="1134.2773" y2="1157.5215"/><polygon fill="#666666" points="432.0313,1147.5215,436.0313,1157.5215,440.0313,1147.5215,436.0313,1151.5215" style="stroke:#666666;stroke-width:1;"/><line style="stroke:#666666;stroke-width:0.7;" x1="246.0586" x2="246.0586" y1="1217.5098" y2="1236.0098"/><polygon fill="#666666" points="242.0586,1226.0098,246.0586,1236.0098,250.0586,1226.0098,246.0586,1230.0098" style="stroke:#666666;stroke-width:1;"/><line style="stroke:#666666;stroke-width:0.7;" x1="416.2993" x2="416.2993" y1="1217.5098" y2="1236.0098"/><polygon fill="#666666" points="412.2993,1226.0098,416.2993,1236.0098,420.2993,1226.0098,416.2993,1230.0098" style="stroke:#666666;stroke-width:1;"/><line style="stroke:#666666;stroke-width:0.7;" x1="590.9185" x2="590.9185" y1="1217.5098" y2="1236.0098"/><polygon fill="#666666" points="586.9185,1226.0098,590.9185,1236.0098,594.9185,1226.0098,590.9185,1230.0098" style="stroke:#666666;stroke-width:1;"/><line style="stroke:#666666;stroke-width:0.7;" x1="246.0586" x2="246.0586" y1="1274.498" y2="1297.7422"/><polygon fill="#666666" points="242.0586,1287.7422,246.0586,1297.7422,250.0586,1287.7422,246.0586,1291.7422" style="stroke:#666666;stroke-width:1;"/><line style="stroke:#666666;stroke-width:0.7;" x1="416.2993" x2="416.2993" y1="1274.498" y2="1297.7422"/><polygon fill="#666666" points="412.2993,1287.7422,416.2993,1297.7422,420.2993,1287.7422,416.2993,1291.7422" style="stroke:#666666;stroke-width:1;"/><line style="stroke:#666666;stroke-width:0.7;" x1="590.9185" x2="590.9185" y1="1274.498" y2="1297.7422"/><polygon fill="#666666" points="586.9185,1287.7422,590.9185,1297.7422,594.9185,1287.7422,590.9185,1291.7422" style="stroke:#666666;stroke-width:1;"/><line style="stroke:#666666;stroke-width:0.7;" x1="436.0313" x2="436.0313" y1="1196.0098" y2="1216.0098"/><polygon fill="#666666" points="432.0313,1206.0098,436.0313,1216.0098,440.0313,1206.0098,436.0313,1210.0098" style="stroke:#666666;stroke-width:1;"/><line style="stroke:#666666;stroke-width:0.7;" x1="436.0313" x2="436.0313" y1="1299.2422" y2="1317.7422"/><polygon fill="#666666" points="432.0313,1307.7422,436.0313,1317.7422,440.0313,1307.7422,436.0313,1311.7422" style="stroke:#666666;stroke-width:1;"/><line style="stroke:#666666;stroke-width:0.7;" x1="436.0313" x2="436.0313" y1="1033.8008" y2="1095.7891"/><polygon fill="#666666" points="432.0313,1085.7891,436.0313,1095.7891,440.0313,1085.7891,436.0313,1089.7891" style="stroke:#666666;stroke-width:1;"/><line style="stroke:#666666;stroke-width:0.7;" x1="206.8579" x2="206.8579" y1="1418.2188" y2="1436.7188"/><polygon fill="#666666" points="202.8579,1426.7188,206.8579,1436.7188,210.8579,1426.7188,206.8579,1430.7188" style="stroke:#666666;stroke-width:1;"/><line style="stroke:#666666;stroke-width:0.7;" x1="452.9673" x2="452.9673" y1="1418.2188" y2="1436.7188"/><polygon fill="#666666" points="448.9673,1426.7188,452.9673,1436.7188,456.9673,1426.7188,452.9673,1430.7188" style="stroke:#666666;stroke-width:1;"/><line style="stroke:#666666;stroke-width:0.7;" x1="682.1406" x2="682.1406" y1="1418.2188" y2="1436.7188"/><polygon fill="#666666" points="678.1406,1426.7188,682.1406,1436.7188,686.1406,1426.7188,682.1406,1430.7188" style="stroke:#666666;stroke-width:1;"/><line style="stroke:#666666;stroke-width:0.7;" x1="206.8579" x2="206.8579" y1="1475.207" y2="1495.207"/><polygon fill="#666666" points="202.8579,1485.207,206.8579,1495.207,210.8579,1485.207,206.8579,1489.207" style="stroke:#666666;stroke-width:1;"/><line style="stroke:#666666;stroke-width:0.7;" x1="452.9673" x2="452.9673" y1="1475.207" y2="1495.207"/><polygon fill="#666666" points="448.9673,1485.207,452.9673,1495.207,456.9673,1485.207,452.9673,1489.207" style="stroke:#666666;stroke-width:1;"/><line style="stroke:#666666;stroke-width:0.7;" x1="682.1406" x2="682.1406" y1="1475.207" y2="1495.207"/><polygon fill="#666666" points="678.1406,1485.207,682.1406,1495.207,686.1406,1485.207,682.1406,1489.207" style="stroke:#666666;stroke-width:1;"/><line style="stroke:#666666;stroke-width:0.7;" x1="436.0313" x2="436.0313" y1="1356.2305" y2="1416.7188"/><polygon fill="#666666" points="432.0313,1406.7188,436.0313,1416.7188,440.0313,1406.7188,436.0313,1410.7188" style="stroke:#666666;stroke-width:1;"/><line style="stroke:#666666;stroke-width:0.7;" x1="436.0313" x2="436.0313" y1="1496.707" y2="1527.207"/><polygon fill="#666666" points="432.0313,1517.207,436.0313,1527.207,440.0313,1517.207,436.0313,1521.207" style="stroke:#666666;stroke-width:1;"/><line style="stroke:#666666;stroke-width:0.7;" x1="436.0313" x2="436.0313" y1="1565.6953" y2="1585.6953"/><polygon fill="#666666" points="432.0313,1575.6953,436.0313,1585.6953,440.0313,1575.6953,436.0313,1579.6953" style="stroke:#666666;stroke-width:1;"/><!--SRC=[XLRVSzf837xdhz2a3srpIGO2JGBfT8QVD_HeZWjCxjuwYosR7TQxdjqrXDxS_tvQsu1j224Fu9Nsa_JfanopuZ9ccaNWOy0IOKTAsXd_XT1erSpU63FVvpA4HktZuL0g7mt6yALug9bSfOVrUhq0qFKiNtExxJ5l5MgLIB-lXDBm8MYxlrEUIlkeSwzcirbqqLfjSilTtTs9owUhU58MIx3jThjgFiel22ekHUpQHvYmEVvpxQaePfOl1891QuahKxXMuFQ9HGWN4_ALy8C8rFAYI5-afFAMMf6JrGaMCCoI-MhZcX0mOOeMmINQROoWj5sgWe4vdkPBxgqa6WFrc_k2SL6fr5Bd39bGMbVM00E21HEZnmFk0SkP1MEt0el5xIt_re0-5GQ_Vequ-LibyTit-53ltNRlwwcZO-EKosWqoe0EdQfujEhzXq6pzb-jf51jkULAdaw3O9kZrkYXYam2Qjst7XOEx01nCPRqWmdeIYQsXfkB7DLOyab_TL8JgM3Gku8P2lGip1drtpocTabA0St3fUt0RGDiQY9jE4VqCuYfO1A6hp7r3MR4lyLm-rZB0iM2Pu4oJwqyry9Pn8GenKdD0wvT_Fxi9OTxF8002ncNnr0JfaCyXfgbTqYS_ML2aromV5Tqkk5s2TCjwKmUJ6cj0WCg5M_2cokOEoqvNIXfijBXKwDLN_q694ZpERs8qi-hB5C_rHXdAPBMTxntHloL1ACZPiqLz9LS8t4svn69WaKnfLa66Serrqf696PgZatYFL3w15DbRAXnzjSahuYUVn_Fif8wuoXjoI4Jz674zpnrUinGtvcbBmlFoFpjOqcXbMIS9mpbaaaFNKPxCPLxd7j03wau5cOH2lntVHzUb4XeDOnbe4xGlpzndnzC9gHWYgUt9GDriV6b3OiyZDaRNKSSrllQUIOIjJILv7fSChs5aM3X6Vtbv0xNhZUL4eUlD0Kav80M8FoDYsA0yNMN965eU8XBggbIVpfgfJhfndJNlfB1TTruciVsZThVacPNAhcD-2_c7lUAegJTXK4larB9wNWb7FhqX1jWHUUVdf813pCh8qX5HH6dukUQYGJpIJAretmx_VHYeh4S_NWJVP_z-NJjQqxak_TK4f_TDYyKHMbpSj1dknT3a4tb-wBf9pGU4UxmpYydvQKLc7Ux_0VIFnjKzBL1QQXFQooP9Rrk3NpArbAl-moJsy_lDJrRgVbuxmX5_-oCxruKwT9uOy1x2HS-BQyeugHakjLdmai4iqgVeQImIqducdlBTAkzSDoSkJMWwHOgtfDUy2-fktDvEN8IAw-poyjAiVGTr_u7]--></g></svg>